# xmcd CD database file
#
# Track frame offsets:
#	150
#	10171
#	26453
#	36492
#	50143
#	60543
#	70546
#	79122
#	89880
#	113571
#	128999
#	147873
#	160252
#	167536
#
# Disc length: 2412 seconds
#
# Revision: 1
# Processed by: cddbd v1.5.2PL0 Copyright (c) Steve Scherf et al.
# Submitted via: CDex 1.60beta1
#
DISCID=b9096a0e
DTITLE=Gryllus Dániel - Weöres Sándor - A teljesség felé
DYEAR=1987
DGENRE=New Age
TTITLE0=Tíz lépcső
TTITLE1=Ki vagy te?
TTITLE2=A vágyak idomítása
TTITLE3=Az élet idomítása
TTITLE4=A jóságról
TTITLE5=Szembe-fordított tükrök
TTITLE6=A gondolatok visszája és színe
TTITLE7=A közösség javításáról
TTITLE8=A hírvágy
TTITLE9=Hullámok és tenger
TTITLE10=Földi és égi hatalom
TTITLE11=Szembe-fordított tükrök (6)
TTITLE12=Összefoglalás
TTITLE13=Tíz erkély
EXTD=YEAR: 1987
EXTT0=
EXTT1=
EXTT2=
EXTT3=
EXTT4=
EXTT5=
EXTT6=
EXTT7=
EXTT8=
EXTT9=
EXTT10=
EXTT11=
EXTT12=
EXTT13=
PLAYORDER=
